<mxfile host="app.diagrams.net" agent="Mozilla/5.0 (Macintosh; Intel Mac OS X 10_15_7) AppleWebKit/605.1.15 (KHTML, like Gecko) Version/26.0.1 Safari/605.1.15" version="28.2.7">
  <diagram name="Page-1" id="09MY2vm8BpibO81NWRfL">
    <mxGraphModel dx="421" dy="589" grid="1" gridSize="10" guides="1" tooltips="1" connect="1" arrows="1" fold="1" page="1" pageScale="1" pageWidth="827" pageHeight="1169" math="0" shadow="0">
      <root>
        <mxCell id="0" />
        <mxCell id="1" parent="0" />
        <mxCell id="IA2ymVOn2J518Vu2m2VD-1" value="Pokemon" style="rounded=0;whiteSpace=wrap;html=1;" parent="1" vertex="1">
          <mxGeometry x="240" y="230" width="120" height="60" as="geometry" />
        </mxCell>
        <mxCell id="IA2ymVOn2J518Vu2m2VD-2" value="evolves_to" style="rhombus;whiteSpace=wrap;html=1;" parent="1" vertex="1">
          <mxGeometry x="410" y="220" width="80" height="80" as="geometry" />
        </mxCell>
        <mxCell id="IA2ymVOn2J518Vu2m2VD-4" value="" style="endArrow=none;html=1;rounded=0;exitX=1;exitY=0.5;exitDx=0;exitDy=0;entryX=0;entryY=0.5;entryDx=0;entryDy=0;" parent="1" source="IA2ymVOn2J518Vu2m2VD-1" target="IA2ymVOn2J518Vu2m2VD-2" edge="1">
          <mxGeometry width="50" height="50" relative="1" as="geometry">
            <mxPoint x="450" y="500" as="sourcePoint" />
            <mxPoint x="500" y="450" as="targetPoint" />
          </mxGeometry>
        </mxCell>
        <mxCell id="IA2ymVOn2J518Vu2m2VD-5" value="" style="endArrow=none;html=1;rounded=0;exitX=0.5;exitY=0;exitDx=0;exitDy=0;" parent="1" source="IA2ymVOn2J518Vu2m2VD-2" edge="1">
          <mxGeometry width="50" height="50" relative="1" as="geometry">
            <mxPoint x="450" y="500" as="sourcePoint" />
            <mxPoint x="450" y="160" as="targetPoint" />
          </mxGeometry>
        </mxCell>
        <mxCell id="IA2ymVOn2J518Vu2m2VD-6" value="" style="endArrow=none;html=1;rounded=0;" parent="1" edge="1">
          <mxGeometry width="50" height="50" relative="1" as="geometry">
            <mxPoint x="350" y="160" as="sourcePoint" />
            <mxPoint x="450" y="160" as="targetPoint" />
          </mxGeometry>
        </mxCell>
        <mxCell id="IA2ymVOn2J518Vu2m2VD-7" value="" style="endArrow=none;html=1;rounded=0;exitX=0.917;exitY=-0.013;exitDx=0;exitDy=0;exitPerimeter=0;" parent="1" source="IA2ymVOn2J518Vu2m2VD-1" edge="1">
          <mxGeometry width="50" height="50" relative="1" as="geometry">
            <mxPoint x="390" y="180" as="sourcePoint" />
            <mxPoint x="350" y="160" as="targetPoint" />
          </mxGeometry>
        </mxCell>
        <mxCell id="IA2ymVOn2J518Vu2m2VD-8" value="0..1" style="text;html=1;whiteSpace=wrap;strokeColor=none;fillColor=none;align=center;verticalAlign=middle;rounded=0;" parent="1" vertex="1">
          <mxGeometry x="370" y="230" width="60" height="30" as="geometry" />
        </mxCell>
        <mxCell id="IA2ymVOn2J518Vu2m2VD-9" value="0..1" style="text;html=1;whiteSpace=wrap;strokeColor=none;fillColor=none;align=center;verticalAlign=middle;rounded=0;" parent="1" vertex="1">
          <mxGeometry x="340" y="200" width="60" height="30" as="geometry" />
        </mxCell>
        <mxCell id="IA2ymVOn2J518Vu2m2VD-10" value="Form" style="rounded=0;whiteSpace=wrap;html=1;" parent="1" vertex="1">
          <mxGeometry x="97.5" y="330" width="50" height="30" as="geometry" />
        </mxCell>
        <mxCell id="IA2ymVOn2J518Vu2m2VD-11" value="has_form" style="rhombus;whiteSpace=wrap;html=1;" parent="1" vertex="1">
          <mxGeometry x="85" y="220" width="80" height="80" as="geometry" />
        </mxCell>
        <mxCell id="IA2ymVOn2J518Vu2m2VD-12" value="" style="endArrow=none;html=1;rounded=0;entryX=0;entryY=0.5;entryDx=0;entryDy=0;exitX=1;exitY=0.5;exitDx=0;exitDy=0;" parent="1" source="IA2ymVOn2J518Vu2m2VD-11" target="IA2ymVOn2J518Vu2m2VD-1" edge="1">
          <mxGeometry width="50" height="50" relative="1" as="geometry">
            <mxPoint x="310" y="400" as="sourcePoint" />
            <mxPoint x="360" y="350" as="targetPoint" />
          </mxGeometry>
        </mxCell>
        <mxCell id="IA2ymVOn2J518Vu2m2VD-13" value="" style="endArrow=none;html=1;rounded=0;entryX=0.5;entryY=1;entryDx=0;entryDy=0;exitX=0.5;exitY=0;exitDx=0;exitDy=0;" parent="1" source="IA2ymVOn2J518Vu2m2VD-10" target="IA2ymVOn2J518Vu2m2VD-11" edge="1">
          <mxGeometry width="50" height="50" relative="1" as="geometry">
            <mxPoint x="310" y="400" as="sourcePoint" />
            <mxPoint x="360" y="350" as="targetPoint" />
          </mxGeometry>
        </mxCell>
        <mxCell id="IA2ymVOn2J518Vu2m2VD-14" value="0..1" style="text;html=1;whiteSpace=wrap;strokeColor=none;fillColor=none;align=center;verticalAlign=middle;rounded=0;" parent="1" vertex="1">
          <mxGeometry x="190" y="230" width="60" height="30" as="geometry" />
        </mxCell>
        <mxCell id="IA2ymVOn2J518Vu2m2VD-15" value="1..1" style="text;html=1;whiteSpace=wrap;strokeColor=none;fillColor=none;align=center;verticalAlign=middle;rounded=0;" parent="1" vertex="1">
          <mxGeometry x="107.5" y="300" width="60" height="30" as="geometry" />
        </mxCell>
        <mxCell id="IA2ymVOn2J518Vu2m2VD-16" value="Type" style="rounded=0;whiteSpace=wrap;html=1;" parent="1" vertex="1">
          <mxGeometry x="205" y="480" width="50" height="30" as="geometry" />
        </mxCell>
        <mxCell id="IA2ymVOn2J518Vu2m2VD-17" value="has_type" style="rhombus;whiteSpace=wrap;html=1;" parent="1" vertex="1">
          <mxGeometry x="190" y="335" width="80" height="80" as="geometry" />
        </mxCell>
        <mxCell id="IA2ymVOn2J518Vu2m2VD-18" value="" style="endArrow=none;html=1;rounded=0;entryX=0.5;entryY=1;entryDx=0;entryDy=0;exitX=0.5;exitY=0;exitDx=0;exitDy=0;" parent="1" source="IA2ymVOn2J518Vu2m2VD-16" target="IA2ymVOn2J518Vu2m2VD-17" edge="1">
          <mxGeometry width="50" height="50" relative="1" as="geometry">
            <mxPoint x="445" y="520" as="sourcePoint" />
            <mxPoint x="495" y="470" as="targetPoint" />
          </mxGeometry>
        </mxCell>
        <mxCell id="IA2ymVOn2J518Vu2m2VD-19" value="1..*" style="text;html=1;whiteSpace=wrap;strokeColor=none;fillColor=none;align=center;verticalAlign=middle;rounded=0;" parent="1" vertex="1">
          <mxGeometry x="217.5" y="450" width="60" height="30" as="geometry" />
        </mxCell>
        <mxCell id="IA2ymVOn2J518Vu2m2VD-20" value="" style="endArrow=none;html=1;rounded=0;entryX=0.25;entryY=1;entryDx=0;entryDy=0;exitX=0.5;exitY=0;exitDx=0;exitDy=0;" parent="1" source="IA2ymVOn2J518Vu2m2VD-17" target="IA2ymVOn2J518Vu2m2VD-1" edge="1">
          <mxGeometry width="50" height="50" relative="1" as="geometry">
            <mxPoint x="250" y="370" as="sourcePoint" />
            <mxPoint x="300" y="320" as="targetPoint" />
          </mxGeometry>
        </mxCell>
        <mxCell id="IA2ymVOn2J518Vu2m2VD-21" value="1..2" style="text;html=1;whiteSpace=wrap;strokeColor=none;fillColor=none;align=center;verticalAlign=middle;rounded=0;" parent="1" vertex="1">
          <mxGeometry x="250" y="290" width="60" height="30" as="geometry" />
        </mxCell>
        <mxCell id="IA2ymVOn2J518Vu2m2VD-22" value="Gym" style="rounded=0;whiteSpace=wrap;html=1;" parent="1" vertex="1">
          <mxGeometry x="300" y="630" width="50" height="30" as="geometry" />
        </mxCell>
        <mxCell id="IA2ymVOn2J518Vu2m2VD-23" value="Trainer" style="rounded=0;whiteSpace=wrap;html=1;" parent="1" vertex="1">
          <mxGeometry x="300" y="450" width="50" height="30" as="geometry" />
        </mxCell>
        <mxCell id="IA2ymVOn2J518Vu2m2VD-24" value="owns" style="rhombus;whiteSpace=wrap;html=1;" parent="1" vertex="1">
          <mxGeometry x="300" y="350" width="50" height="50" as="geometry" />
        </mxCell>
        <mxCell id="IA2ymVOn2J518Vu2m2VD-25" value="" style="endArrow=none;html=1;rounded=0;entryX=0.5;entryY=1;entryDx=0;entryDy=0;exitX=0.5;exitY=0;exitDx=0;exitDy=0;" parent="1" source="IA2ymVOn2J518Vu2m2VD-23" target="IA2ymVOn2J518Vu2m2VD-24" edge="1">
          <mxGeometry width="50" height="50" relative="1" as="geometry">
            <mxPoint x="210" y="460" as="sourcePoint" />
            <mxPoint x="260" y="410" as="targetPoint" />
          </mxGeometry>
        </mxCell>
        <mxCell id="IA2ymVOn2J518Vu2m2VD-26" value="" style="endArrow=none;html=1;rounded=0;entryX=0.75;entryY=1;entryDx=0;entryDy=0;exitX=0.5;exitY=0;exitDx=0;exitDy=0;" parent="1" source="IA2ymVOn2J518Vu2m2VD-24" target="IA2ymVOn2J518Vu2m2VD-1" edge="1">
          <mxGeometry width="50" height="50" relative="1" as="geometry">
            <mxPoint x="240" y="450" as="sourcePoint" />
            <mxPoint x="290" y="400" as="targetPoint" />
          </mxGeometry>
        </mxCell>
        <mxCell id="IA2ymVOn2J518Vu2m2VD-27" value="leads" style="rhombus;whiteSpace=wrap;html=1;" parent="1" vertex="1">
          <mxGeometry x="300" y="540" width="50" height="50" as="geometry" />
        </mxCell>
        <mxCell id="IA2ymVOn2J518Vu2m2VD-28" value="" style="endArrow=none;html=1;rounded=0;entryX=0.5;entryY=1;entryDx=0;entryDy=0;exitX=0.5;exitY=0;exitDx=0;exitDy=0;" parent="1" source="IA2ymVOn2J518Vu2m2VD-27" target="IA2ymVOn2J518Vu2m2VD-23" edge="1">
          <mxGeometry width="50" height="50" relative="1" as="geometry">
            <mxPoint x="210" y="460" as="sourcePoint" />
            <mxPoint x="260" y="410" as="targetPoint" />
          </mxGeometry>
        </mxCell>
        <mxCell id="IA2ymVOn2J518Vu2m2VD-29" value="" style="endArrow=none;html=1;rounded=0;entryX=0.5;entryY=1;entryDx=0;entryDy=0;exitX=0.5;exitY=0;exitDx=0;exitDy=0;" parent="1" source="IA2ymVOn2J518Vu2m2VD-22" target="IA2ymVOn2J518Vu2m2VD-27" edge="1">
          <mxGeometry width="50" height="50" relative="1" as="geometry">
            <mxPoint x="30" y="655" as="sourcePoint" />
            <mxPoint x="80" y="605" as="targetPoint" />
          </mxGeometry>
        </mxCell>
        <mxCell id="IA2ymVOn2J518Vu2m2VD-30" value="1..*" style="text;html=1;whiteSpace=wrap;strokeColor=none;fillColor=none;align=center;verticalAlign=middle;rounded=0;" parent="1" vertex="1">
          <mxGeometry x="307" y="417.5" width="60" height="30" as="geometry" />
        </mxCell>
        <mxCell id="IA2ymVOn2J518Vu2m2VD-31" value="1..1" style="text;html=1;whiteSpace=wrap;strokeColor=none;fillColor=none;align=center;verticalAlign=middle;rounded=0;" parent="1" vertex="1">
          <mxGeometry x="310" y="290" width="60" height="30" as="geometry" />
        </mxCell>
        <mxCell id="IA2ymVOn2J518Vu2m2VD-32" value="1..1" style="text;html=1;whiteSpace=wrap;strokeColor=none;fillColor=none;align=center;verticalAlign=middle;rounded=0;" parent="1" vertex="1">
          <mxGeometry x="310" y="600" width="60" height="30" as="geometry" />
        </mxCell>
        <mxCell id="IA2ymVOn2J518Vu2m2VD-33" value="0..1" style="text;html=1;whiteSpace=wrap;strokeColor=none;fillColor=none;align=center;verticalAlign=middle;rounded=0;" parent="1" vertex="1">
          <mxGeometry x="310" y="490" width="60" height="30" as="geometry" />
        </mxCell>
        <mxCell id="IA2ymVOn2J518Vu2m2VD-36" value="Battle" style="rounded=0;whiteSpace=wrap;html=1;" parent="1" vertex="1">
          <mxGeometry x="585" y="445" width="60" height="40" as="geometry" />
        </mxCell>
        <mxCell id="IA2ymVOn2J518Vu2m2VD-37" value="participates_in" style="rhombus;whiteSpace=wrap;html=1;" parent="1" vertex="1">
          <mxGeometry x="419.5" y="417.5" width="105" height="95" as="geometry" />
        </mxCell>
        <mxCell id="IA2ymVOn2J518Vu2m2VD-38" value="" style="endArrow=none;html=1;rounded=0;exitX=0;exitY=0.5;exitDx=0;exitDy=0;" parent="1" source="IA2ymVOn2J518Vu2m2VD-37" edge="1">
          <mxGeometry width="50" height="50" relative="1" as="geometry">
            <mxPoint x="200" y="620" as="sourcePoint" />
            <mxPoint x="350" y="465" as="targetPoint" />
          </mxGeometry>
        </mxCell>
        <mxCell id="IA2ymVOn2J518Vu2m2VD-39" value="" style="endArrow=none;html=1;rounded=0;entryX=1;entryY=0.5;entryDx=0;entryDy=0;exitX=0;exitY=0.5;exitDx=0;exitDy=0;" parent="1" source="IA2ymVOn2J518Vu2m2VD-36" target="IA2ymVOn2J518Vu2m2VD-37" edge="1">
          <mxGeometry width="50" height="50" relative="1" as="geometry">
            <mxPoint x="440" y="560" as="sourcePoint" />
            <mxPoint x="490" y="510" as="targetPoint" />
          </mxGeometry>
        </mxCell>
        <mxCell id="IA2ymVOn2J518Vu2m2VD-40" value="2..2" style="text;html=1;whiteSpace=wrap;strokeColor=none;fillColor=none;align=center;verticalAlign=middle;rounded=0;" parent="1" vertex="1">
          <mxGeometry x="525" y="440" width="60" height="30" as="geometry" />
        </mxCell>
        <mxCell id="IA2ymVOn2J518Vu2m2VD-41" value="0..*" style="text;html=1;whiteSpace=wrap;strokeColor=none;fillColor=none;align=center;verticalAlign=middle;rounded=0;" parent="1" vertex="1">
          <mxGeometry x="340.5" y="440" width="60" height="30" as="geometry" />
        </mxCell>
        <mxCell id="IA2ymVOn2J518Vu2m2VD-42" value="specializes_in" style="rhombus;whiteSpace=wrap;html=1;" parent="1" vertex="1">
          <mxGeometry x="182.5" y="540" width="95" height="100" as="geometry" />
        </mxCell>
        <mxCell id="IA2ymVOn2J518Vu2m2VD-43" value="" style="endArrow=none;html=1;rounded=0;entryX=0.5;entryY=1;entryDx=0;entryDy=0;exitX=0.5;exitY=0;exitDx=0;exitDy=0;" parent="1" source="IA2ymVOn2J518Vu2m2VD-42" target="IA2ymVOn2J518Vu2m2VD-16" edge="1">
          <mxGeometry width="50" height="50" relative="1" as="geometry">
            <mxPoint x="360" y="460" as="sourcePoint" />
            <mxPoint x="410" y="410" as="targetPoint" />
          </mxGeometry>
        </mxCell>
        <mxCell id="IA2ymVOn2J518Vu2m2VD-44" value="" style="endArrow=none;html=1;rounded=0;exitX=0;exitY=0.5;exitDx=0;exitDy=0;entryX=0.5;entryY=1;entryDx=0;entryDy=0;" parent="1" source="IA2ymVOn2J518Vu2m2VD-22" target="IA2ymVOn2J518Vu2m2VD-42" edge="1">
          <mxGeometry width="50" height="50" relative="1" as="geometry">
            <mxPoint x="360" y="460" as="sourcePoint" />
            <mxPoint x="410" y="410" as="targetPoint" />
          </mxGeometry>
        </mxCell>
        <mxCell id="IA2ymVOn2J518Vu2m2VD-45" value="1..1" style="text;html=1;whiteSpace=wrap;strokeColor=none;fillColor=none;align=center;verticalAlign=middle;rounded=0;" parent="1" vertex="1">
          <mxGeometry x="250" y="620" width="60" height="30" as="geometry" />
        </mxCell>
        <mxCell id="IA2ymVOn2J518Vu2m2VD-46" value="0..*" style="text;html=1;whiteSpace=wrap;strokeColor=none;fillColor=none;align=center;verticalAlign=middle;rounded=0;" parent="1" vertex="1">
          <mxGeometry x="180" y="510" width="60" height="30" as="geometry" />
        </mxCell>
        <mxCell id="IA2ymVOn2J518Vu2m2VD-49" value="fights_in" style="rhombus;whiteSpace=wrap;html=1;" parent="1" vertex="1">
          <mxGeometry x="420" y="330" width="86" height="80" as="geometry" />
        </mxCell>
        <mxCell id="IA2ymVOn2J518Vu2m2VD-50" value="" style="endArrow=none;html=1;rounded=0;entryX=1;entryY=0.75;entryDx=0;entryDy=0;exitX=0;exitY=0.5;exitDx=0;exitDy=0;" parent="1" source="IA2ymVOn2J518Vu2m2VD-49" target="IA2ymVOn2J518Vu2m2VD-1" edge="1">
          <mxGeometry width="50" height="50" relative="1" as="geometry">
            <mxPoint x="360" y="460" as="sourcePoint" />
            <mxPoint x="410" y="410" as="targetPoint" />
          </mxGeometry>
        </mxCell>
        <mxCell id="IA2ymVOn2J518Vu2m2VD-51" value="" style="endArrow=none;html=1;rounded=0;entryX=1;entryY=0.5;entryDx=0;entryDy=0;exitX=0;exitY=0.25;exitDx=0;exitDy=0;" parent="1" source="IA2ymVOn2J518Vu2m2VD-36" target="IA2ymVOn2J518Vu2m2VD-49" edge="1">
          <mxGeometry width="50" height="50" relative="1" as="geometry">
            <mxPoint x="600" y="390" as="sourcePoint" />
            <mxPoint x="410" y="410" as="targetPoint" />
          </mxGeometry>
        </mxCell>
        <mxCell id="IA2ymVOn2J518Vu2m2VD-53" value="0..*" style="text;html=1;whiteSpace=wrap;strokeColor=none;fillColor=none;align=center;verticalAlign=middle;rounded=0;" parent="1" vertex="1">
          <mxGeometry x="354" y="280" width="60" height="30" as="geometry" />
        </mxCell>
        <mxCell id="IA2ymVOn2J518Vu2m2VD-54" value="2..*" style="text;html=1;whiteSpace=wrap;strokeColor=none;fillColor=none;align=center;verticalAlign=middle;rounded=0;" parent="1" vertex="1">
          <mxGeometry x="540" y="400" width="60" height="30" as="geometry" />
        </mxCell>
        <mxCell id="IA2ymVOn2J518Vu2m2VD-55" value="Location" style="ellipse;whiteSpace=wrap;html=1;" parent="1" vertex="1">
          <mxGeometry x="226" y="690" width="54" height="30" as="geometry" />
        </mxCell>
        <mxCell id="IA2ymVOn2J518Vu2m2VD-56" value="" style="endArrow=none;html=1;rounded=0;entryX=0.5;entryY=0;entryDx=0;entryDy=0;exitX=0.25;exitY=1;exitDx=0;exitDy=0;" parent="1" source="IA2ymVOn2J518Vu2m2VD-22" target="IA2ymVOn2J518Vu2m2VD-55" edge="1">
          <mxGeometry width="50" height="50" relative="1" as="geometry">
            <mxPoint x="360" y="420" as="sourcePoint" />
            <mxPoint x="410" y="370" as="targetPoint" />
          </mxGeometry>
        </mxCell>
        <mxCell id="IA2ymVOn2J518Vu2m2VD-57" value="hasWon" style="ellipse;whiteSpace=wrap;html=1;" parent="1" vertex="1">
          <mxGeometry x="440" y="560" width="64" height="30" as="geometry" />
        </mxCell>
        <mxCell id="IA2ymVOn2J518Vu2m2VD-60" value="" style="endArrow=none;html=1;rounded=0;entryX=0.5;entryY=1;entryDx=0;entryDy=0;exitX=0.5;exitY=0;exitDx=0;exitDy=0;" parent="1" source="IA2ymVOn2J518Vu2m2VD-57" target="IA2ymVOn2J518Vu2m2VD-37" edge="1">
          <mxGeometry width="50" height="50" relative="1" as="geometry">
            <mxPoint x="360" y="420" as="sourcePoint" />
            <mxPoint x="410" y="370" as="targetPoint" />
          </mxGeometry>
        </mxCell>
        <mxCell id="IA2ymVOn2J518Vu2m2VD-63" value="&lt;u&gt;ID&lt;/u&gt;" style="ellipse;whiteSpace=wrap;html=1;" parent="1" vertex="1">
          <mxGeometry x="30" y="100" width="30" height="20" as="geometry" />
        </mxCell>
        <mxCell id="IA2ymVOn2J518Vu2m2VD-64" value="Number" style="ellipse;whiteSpace=wrap;html=1;" parent="1" vertex="1">
          <mxGeometry x="110" y="25" width="55" height="30" as="geometry" />
        </mxCell>
        <mxCell id="IA2ymVOn2J518Vu2m2VD-66" value="HP" style="ellipse;whiteSpace=wrap;html=1;" parent="1" vertex="1">
          <mxGeometry x="250" y="30" width="30" height="20" as="geometry" />
        </mxCell>
        <mxCell id="IA2ymVOn2J518Vu2m2VD-67" value="Attack" style="ellipse;whiteSpace=wrap;html=1;" parent="1" vertex="1">
          <mxGeometry x="300" y="40" width="40" height="20" as="geometry" />
        </mxCell>
        <mxCell id="IA2ymVOn2J518Vu2m2VD-68" value="Defense" style="ellipse;whiteSpace=wrap;html=1;" parent="1" vertex="1">
          <mxGeometry x="357" y="50" width="57" height="30" as="geometry" />
        </mxCell>
        <mxCell id="IA2ymVOn2J518Vu2m2VD-69" value="Special Denfese" style="ellipse;whiteSpace=wrap;html=1;" parent="1" vertex="1">
          <mxGeometry x="15" y="140" width="60" height="40" as="geometry" />
        </mxCell>
        <mxCell id="IA2ymVOn2J518Vu2m2VD-70" value="Special Attack" style="ellipse;whiteSpace=wrap;html=1;" parent="1" vertex="1">
          <mxGeometry x="10" y="190" width="70" height="40" as="geometry" />
        </mxCell>
        <mxCell id="IA2ymVOn2J518Vu2m2VD-71" value="" style="endArrow=none;html=1;rounded=0;entryX=1;entryY=0.5;entryDx=0;entryDy=0;exitX=0;exitY=0;exitDx=0;exitDy=0;" parent="1" source="IA2ymVOn2J518Vu2m2VD-1" target="IA2ymVOn2J518Vu2m2VD-70" edge="1">
          <mxGeometry width="50" height="50" relative="1" as="geometry">
            <mxPoint x="240" y="430" as="sourcePoint" />
            <mxPoint x="290" y="380" as="targetPoint" />
          </mxGeometry>
        </mxCell>
        <mxCell id="IA2ymVOn2J518Vu2m2VD-72" value="" style="endArrow=none;html=1;rounded=0;entryX=1;entryY=0.5;entryDx=0;entryDy=0;exitX=0.153;exitY=0;exitDx=0;exitDy=0;exitPerimeter=0;" parent="1" source="IA2ymVOn2J518Vu2m2VD-1" target="IA2ymVOn2J518Vu2m2VD-69" edge="1">
          <mxGeometry width="50" height="50" relative="1" as="geometry">
            <mxPoint x="240" y="430" as="sourcePoint" />
            <mxPoint x="290" y="380" as="targetPoint" />
          </mxGeometry>
        </mxCell>
        <mxCell id="IA2ymVOn2J518Vu2m2VD-73" value="" style="endArrow=none;html=1;rounded=0;entryX=1;entryY=0.5;entryDx=0;entryDy=0;exitX=0.25;exitY=0;exitDx=0;exitDy=0;" parent="1" source="IA2ymVOn2J518Vu2m2VD-1" target="IA2ymVOn2J518Vu2m2VD-63" edge="1">
          <mxGeometry width="50" height="50" relative="1" as="geometry">
            <mxPoint x="210" y="320" as="sourcePoint" />
            <mxPoint x="260" y="270" as="targetPoint" />
          </mxGeometry>
        </mxCell>
        <mxCell id="IA2ymVOn2J518Vu2m2VD-74" value="" style="endArrow=none;html=1;rounded=0;entryX=0.5;entryY=1;entryDx=0;entryDy=0;exitX=0.339;exitY=0.002;exitDx=0;exitDy=0;exitPerimeter=0;" parent="1" source="IA2ymVOn2J518Vu2m2VD-1" target="IA2ymVOn2J518Vu2m2VD-64" edge="1">
          <mxGeometry width="50" height="50" relative="1" as="geometry">
            <mxPoint x="210" y="320" as="sourcePoint" />
            <mxPoint x="260" y="270" as="targetPoint" />
          </mxGeometry>
        </mxCell>
        <mxCell id="IA2ymVOn2J518Vu2m2VD-75" value="" style="endArrow=none;html=1;rounded=0;entryX=0.5;entryY=1;entryDx=0;entryDy=0;exitX=0.417;exitY=0;exitDx=0;exitDy=0;exitPerimeter=0;" parent="1" source="IA2ymVOn2J518Vu2m2VD-1" target="IA2ymVOn2J518Vu2m2VD-80" edge="1">
          <mxGeometry width="50" height="50" relative="1" as="geometry">
            <mxPoint x="210" y="320" as="sourcePoint" />
            <mxPoint x="235" y="130" as="targetPoint" />
          </mxGeometry>
        </mxCell>
        <mxCell id="IA2ymVOn2J518Vu2m2VD-76" value="" style="endArrow=none;html=1;rounded=0;entryX=0.5;entryY=1;entryDx=0;entryDy=0;" parent="1" target="IA2ymVOn2J518Vu2m2VD-66" edge="1">
          <mxGeometry width="50" height="50" relative="1" as="geometry">
            <mxPoint x="295" y="230" as="sourcePoint" />
            <mxPoint x="260" y="270" as="targetPoint" />
          </mxGeometry>
        </mxCell>
        <mxCell id="IA2ymVOn2J518Vu2m2VD-77" value="" style="endArrow=none;html=1;rounded=0;entryX=0.5;entryY=1;entryDx=0;entryDy=0;exitX=0.534;exitY=0.002;exitDx=0;exitDy=0;exitPerimeter=0;" parent="1" source="IA2ymVOn2J518Vu2m2VD-1" target="IA2ymVOn2J518Vu2m2VD-67" edge="1">
          <mxGeometry width="50" height="50" relative="1" as="geometry">
            <mxPoint x="210" y="290" as="sourcePoint" />
            <mxPoint x="260" y="240" as="targetPoint" />
          </mxGeometry>
        </mxCell>
        <mxCell id="IA2ymVOn2J518Vu2m2VD-78" value="" style="endArrow=none;html=1;rounded=0;entryX=0.41;entryY=1.077;entryDx=0;entryDy=0;entryPerimeter=0;exitX=0.579;exitY=-0.002;exitDx=0;exitDy=0;exitPerimeter=0;" parent="1" source="IA2ymVOn2J518Vu2m2VD-1" target="IA2ymVOn2J518Vu2m2VD-68" edge="1">
          <mxGeometry width="50" height="50" relative="1" as="geometry">
            <mxPoint x="210" y="290" as="sourcePoint" />
            <mxPoint x="260" y="240" as="targetPoint" />
          </mxGeometry>
        </mxCell>
        <mxCell id="IA2ymVOn2J518Vu2m2VD-80" value="Total" style="ellipse;whiteSpace=wrap;html=1;dashed=1;" parent="1" vertex="1">
          <mxGeometry x="180" y="30" width="40" height="20" as="geometry" />
        </mxCell>
        <mxCell id="vvTK1xBbvtM2GEbTomCM-2" value="Name" style="ellipse;whiteSpace=wrap;html=1;" vertex="1" parent="1">
          <mxGeometry x="125" y="380" width="55" height="30" as="geometry" />
        </mxCell>
        <mxCell id="vvTK1xBbvtM2GEbTomCM-3" value="" style="endArrow=none;html=1;rounded=0;fontSize=12;startSize=8;endSize=8;curved=1;entryX=0.5;entryY=1;entryDx=0;entryDy=0;exitX=0.5;exitY=0;exitDx=0;exitDy=0;" edge="1" parent="1" source="vvTK1xBbvtM2GEbTomCM-2" target="IA2ymVOn2J518Vu2m2VD-10">
          <mxGeometry width="50" height="50" relative="1" as="geometry">
            <mxPoint x="157.5" y="470" as="sourcePoint" />
            <mxPoint x="207.5" y="420" as="targetPoint" />
          </mxGeometry>
        </mxCell>
        <mxCell id="vvTK1xBbvtM2GEbTomCM-4" value="Name" style="ellipse;whiteSpace=wrap;html=1;" vertex="1" parent="1">
          <mxGeometry x="60" y="60" width="55" height="30" as="geometry" />
        </mxCell>
        <mxCell id="vvTK1xBbvtM2GEbTomCM-5" value="" style="endArrow=none;html=1;rounded=0;fontSize=12;startSize=8;endSize=8;curved=1;entryX=1;entryY=1;entryDx=0;entryDy=0;exitX=0.301;exitY=0.001;exitDx=0;exitDy=0;exitPerimeter=0;" edge="1" parent="1" source="IA2ymVOn2J518Vu2m2VD-1" target="vvTK1xBbvtM2GEbTomCM-4">
          <mxGeometry width="50" height="50" relative="1" as="geometry">
            <mxPoint x="120" y="240" as="sourcePoint" />
            <mxPoint x="170" y="190" as="targetPoint" />
          </mxGeometry>
        </mxCell>
        <mxCell id="vvTK1xBbvtM2GEbTomCM-6" value="Name" style="ellipse;whiteSpace=wrap;html=1;" vertex="1" parent="1">
          <mxGeometry x="92.5" y="480" width="55" height="30" as="geometry" />
        </mxCell>
        <mxCell id="vvTK1xBbvtM2GEbTomCM-7" value="" style="endArrow=none;html=1;rounded=0;fontSize=12;startSize=8;endSize=8;curved=1;entryX=1;entryY=0.5;entryDx=0;entryDy=0;exitX=0;exitY=0.5;exitDx=0;exitDy=0;" edge="1" parent="1" source="IA2ymVOn2J518Vu2m2VD-16" target="vvTK1xBbvtM2GEbTomCM-6">
          <mxGeometry width="50" height="50" relative="1" as="geometry">
            <mxPoint x="260" y="420" as="sourcePoint" />
            <mxPoint x="310" y="370" as="targetPoint" />
          </mxGeometry>
        </mxCell>
        <mxCell id="vvTK1xBbvtM2GEbTomCM-8" value="Name" style="ellipse;whiteSpace=wrap;html=1;" vertex="1" parent="1">
          <mxGeometry x="370" y="500" width="55" height="30" as="geometry" />
        </mxCell>
        <mxCell id="vvTK1xBbvtM2GEbTomCM-9" value="" style="endArrow=none;html=1;rounded=0;fontSize=12;startSize=8;endSize=8;curved=1;entryX=0;entryY=0;entryDx=0;entryDy=0;exitX=1;exitY=1;exitDx=0;exitDy=0;" edge="1" parent="1" source="IA2ymVOn2J518Vu2m2VD-23" target="vvTK1xBbvtM2GEbTomCM-8">
          <mxGeometry width="50" height="50" relative="1" as="geometry">
            <mxPoint x="310" y="410" as="sourcePoint" />
            <mxPoint x="360" y="360" as="targetPoint" />
          </mxGeometry>
        </mxCell>
        <mxCell id="vvTK1xBbvtM2GEbTomCM-10" value="&lt;u&gt;ID&lt;/u&gt;" style="ellipse;whiteSpace=wrap;html=1;" vertex="1" parent="1">
          <mxGeometry x="370.5" y="680" width="30" height="20" as="geometry" />
        </mxCell>
        <mxCell id="vvTK1xBbvtM2GEbTomCM-11" value="&lt;u&gt;ID&lt;/u&gt;" style="ellipse;whiteSpace=wrap;html=1;" vertex="1" parent="1">
          <mxGeometry x="370" y="410" width="30" height="20" as="geometry" />
        </mxCell>
        <mxCell id="vvTK1xBbvtM2GEbTomCM-12" value="&lt;u&gt;ID&lt;/u&gt;" style="ellipse;whiteSpace=wrap;html=1;" vertex="1" parent="1">
          <mxGeometry x="700" y="455" width="30" height="20" as="geometry" />
        </mxCell>
        <mxCell id="vvTK1xBbvtM2GEbTomCM-13" value="" style="endArrow=none;html=1;rounded=0;fontSize=12;startSize=8;endSize=8;curved=1;exitX=0.75;exitY=1;exitDx=0;exitDy=0;entryX=0;entryY=0;entryDx=0;entryDy=0;" edge="1" parent="1" source="IA2ymVOn2J518Vu2m2VD-22" target="vvTK1xBbvtM2GEbTomCM-10">
          <mxGeometry width="50" height="50" relative="1" as="geometry">
            <mxPoint x="270" y="490" as="sourcePoint" />
            <mxPoint x="320" y="440" as="targetPoint" />
          </mxGeometry>
        </mxCell>
        <mxCell id="vvTK1xBbvtM2GEbTomCM-14" value="" style="endArrow=none;html=1;rounded=0;fontSize=12;startSize=8;endSize=8;curved=1;entryX=0;entryY=1;entryDx=0;entryDy=0;exitX=1;exitY=0;exitDx=0;exitDy=0;" edge="1" parent="1" source="IA2ymVOn2J518Vu2m2VD-23" target="vvTK1xBbvtM2GEbTomCM-11">
          <mxGeometry width="50" height="50" relative="1" as="geometry">
            <mxPoint x="390" y="440" as="sourcePoint" />
            <mxPoint x="320" y="440" as="targetPoint" />
          </mxGeometry>
        </mxCell>
        <mxCell id="vvTK1xBbvtM2GEbTomCM-15" value="" style="endArrow=none;html=1;rounded=0;fontSize=12;startSize=8;endSize=8;curved=1;entryX=0;entryY=0.5;entryDx=0;entryDy=0;exitX=1;exitY=0.5;exitDx=0;exitDy=0;" edge="1" parent="1" source="IA2ymVOn2J518Vu2m2VD-36" target="vvTK1xBbvtM2GEbTomCM-12">
          <mxGeometry width="50" height="50" relative="1" as="geometry">
            <mxPoint x="500" y="490" as="sourcePoint" />
            <mxPoint x="550" y="440" as="targetPoint" />
          </mxGeometry>
        </mxCell>
        <mxCell id="vvTK1xBbvtM2GEbTomCM-16" value="hosts" style="rhombus;whiteSpace=wrap;html=1;" vertex="1" parent="1">
          <mxGeometry x="585" y="620" width="60" height="50" as="geometry" />
        </mxCell>
        <mxCell id="vvTK1xBbvtM2GEbTomCM-17" value="" style="endArrow=none;html=1;rounded=0;fontSize=12;startSize=8;endSize=8;curved=1;exitX=1;exitY=0.5;exitDx=0;exitDy=0;entryX=0;entryY=0.5;entryDx=0;entryDy=0;" edge="1" parent="1" source="IA2ymVOn2J518Vu2m2VD-22" target="vvTK1xBbvtM2GEbTomCM-16">
          <mxGeometry width="50" height="50" relative="1" as="geometry">
            <mxPoint x="500" y="460" as="sourcePoint" />
            <mxPoint x="550" y="410" as="targetPoint" />
          </mxGeometry>
        </mxCell>
        <mxCell id="vvTK1xBbvtM2GEbTomCM-18" value="" style="endArrow=none;html=1;rounded=0;fontSize=12;startSize=8;endSize=8;curved=1;entryX=0.5;entryY=1;entryDx=0;entryDy=0;exitX=0.5;exitY=0;exitDx=0;exitDy=0;" edge="1" parent="1" source="vvTK1xBbvtM2GEbTomCM-16" target="IA2ymVOn2J518Vu2m2VD-36">
          <mxGeometry width="50" height="50" relative="1" as="geometry">
            <mxPoint x="500" y="460" as="sourcePoint" />
            <mxPoint x="550" y="410" as="targetPoint" />
          </mxGeometry>
        </mxCell>
        <mxCell id="vvTK1xBbvtM2GEbTomCM-19" value="1..*" style="text;html=1;whiteSpace=wrap;strokeColor=none;fillColor=none;align=center;verticalAlign=middle;rounded=0;" vertex="1" parent="1">
          <mxGeometry x="340.5" y="620" width="60" height="30" as="geometry" />
        </mxCell>
        <mxCell id="vvTK1xBbvtM2GEbTomCM-20" value="0..1" style="text;html=1;whiteSpace=wrap;strokeColor=none;fillColor=none;align=center;verticalAlign=middle;rounded=0;" vertex="1" parent="1">
          <mxGeometry x="600" y="482.5" width="60" height="30" as="geometry" />
        </mxCell>
        <mxCell id="vvTK1xBbvtM2GEbTomCM-21" value="&lt;u&gt;ID&lt;/u&gt;" style="ellipse;whiteSpace=wrap;html=1;" vertex="1" parent="1">
          <mxGeometry x="67.5" y="385" width="30" height="20" as="geometry" />
        </mxCell>
        <mxCell id="vvTK1xBbvtM2GEbTomCM-22" value="" style="endArrow=none;html=1;rounded=0;fontSize=12;startSize=8;endSize=8;curved=1;entryX=0.25;entryY=1;entryDx=0;entryDy=0;exitX=0.5;exitY=0;exitDx=0;exitDy=0;" edge="1" parent="1" source="vvTK1xBbvtM2GEbTomCM-21" target="IA2ymVOn2J518Vu2m2VD-10">
          <mxGeometry width="50" height="50" relative="1" as="geometry">
            <mxPoint x="250" y="400" as="sourcePoint" />
            <mxPoint x="300" y="350" as="targetPoint" />
          </mxGeometry>
        </mxCell>
        <mxCell id="vvTK1xBbvtM2GEbTomCM-23" value="&lt;u&gt;ID&lt;/u&gt;" style="ellipse;whiteSpace=wrap;html=1;" vertex="1" parent="1">
          <mxGeometry x="152.5" y="455" width="30" height="20" as="geometry" />
        </mxCell>
        <mxCell id="vvTK1xBbvtM2GEbTomCM-24" value="" style="endArrow=none;html=1;rounded=0;fontSize=12;startSize=8;endSize=8;curved=1;entryX=1;entryY=1;entryDx=0;entryDy=0;exitX=0;exitY=0.25;exitDx=0;exitDy=0;" edge="1" parent="1" source="IA2ymVOn2J518Vu2m2VD-16" target="vvTK1xBbvtM2GEbTomCM-23">
          <mxGeometry width="50" height="50" relative="1" as="geometry">
            <mxPoint x="250" y="400" as="sourcePoint" />
            <mxPoint x="300" y="350" as="targetPoint" />
          </mxGeometry>
        </mxCell>
        <mxCell id="vvTK1xBbvtM2GEbTomCM-25" value="Name" style="ellipse;whiteSpace=wrap;html=1;" vertex="1" parent="1">
          <mxGeometry x="320" y="720" width="55" height="30" as="geometry" />
        </mxCell>
        <mxCell id="vvTK1xBbvtM2GEbTomCM-26" value="" style="endArrow=none;html=1;rounded=0;fontSize=12;startSize=8;endSize=8;curved=1;exitX=0.5;exitY=0;exitDx=0;exitDy=0;entryX=0.5;entryY=1;entryDx=0;entryDy=0;" edge="1" parent="1" source="vvTK1xBbvtM2GEbTomCM-25" target="IA2ymVOn2J518Vu2m2VD-22">
          <mxGeometry width="50" height="50" relative="1" as="geometry">
            <mxPoint x="300" y="640" as="sourcePoint" />
            <mxPoint x="350" y="590" as="targetPoint" />
          </mxGeometry>
        </mxCell>
        <mxCell id="vvTK1xBbvtM2GEbTomCM-27" value="Date" style="ellipse;whiteSpace=wrap;html=1;" vertex="1" parent="1">
          <mxGeometry x="687.5" y="410" width="55" height="30" as="geometry" />
        </mxCell>
        <mxCell id="vvTK1xBbvtM2GEbTomCM-28" value="" style="endArrow=none;html=1;rounded=0;fontSize=12;startSize=8;endSize=8;curved=1;entryX=0;entryY=0.5;entryDx=0;entryDy=0;exitX=1;exitY=0.25;exitDx=0;exitDy=0;" edge="1" parent="1" source="IA2ymVOn2J518Vu2m2VD-36" target="vvTK1xBbvtM2GEbTomCM-27">
          <mxGeometry width="50" height="50" relative="1" as="geometry">
            <mxPoint x="680" y="510" as="sourcePoint" />
            <mxPoint x="730" y="460" as="targetPoint" />
          </mxGeometry>
        </mxCell>
      </root>
    </mxGraphModel>
  </diagram>
</mxfile>
